# xmcd CD database file
#
# Track frame offsets:
#	150
#	11530
#	32724
#	46020
#	60280
#	71831
#	91604
#	105870
#	114368
#	133515
#	147673
#	166699
#	185044
#
# Disc length: 2671 seconds
#
# Revision: 0
# Processed by: cddbd v1.5.2PL0 Copyright (c) Steve Scherf et al.
# Submitted via: CDex 1.70beta2
#
DISCID=9e0a6d0d
DTITLE=The Five Points Band - Ida The Spider and The American Dream
DYEAR=2006
DGENRE=Blues
TTITLE0=Gingerbread Man
TTITLE1=Ida The Spider
TTITLE2=American Dream
TTITLE3=Clanky Bar
TTITLE4=Stealin'
TTITLE5=Long Toad
TTITLE6=Remember Me
TTITLE7=Down The Road
TTITLE8=Freaks
TTITLE9=Can't Go Home Again
TTITLE10=Union Song
TTITLE11=The Ballad of Capper Jack
TTITLE12=Fresh Cut Flowers
EXTD=YEAR: 2006
EXTT0=
EXTT1=
EXTT2=
EXTT3=
EXTT4=
EXTT5=
EXTT6=
EXTT7=
EXTT8=
EXTT9=
EXTT10=
EXTT11=
EXTT12=
PLAYORDER=
